<?xml version="1.0" standalone="no"?>
<!DOCTYPE svg PUBLIC "-//W3C//DTD SVG 20010904//EN"
 "http://www.w3.org/TR/2001/REC-SVG-20010904/DTD/svg10.dtd">
<svg version="1.0" xmlns="http://www.w3.org/2000/svg"
 width="1280.000000pt" height="720.000000pt" viewBox="0 0 1280.000000 720.000000"
 preserveAspectRatio="xMidYMid meet">

<g transform="translate(0.000000,720.000000) scale(0.100000,-0.100000)"
fill="#000000" stroke="none">
<path d="M4968 6083 l-1428 -826 0 -1656 0 -1657 1422 -821 c783 -452 1428
-823 1433 -825 6 -2 653 368 1438 821 l1427 824 0 1657 0 1657 -1427 824
c-784 453 -1429 825 -1432 826 -3 0 -648 -370 -1433 -824z m2348 -393 c723
-418 832 -484 817 -495 -16 -10 -588 -336 -1432 -815 -129 -73 -240 -133 -245
-133 -11 1 -311 170 -1215 686 -465 265 -474 271 -451 286 112 75 1659 960
1673 957 9 -3 393 -221 853 -486z m-3187 -1188 c90 -180 140 -304 156 -384 7
-40 21 -197 29 -348 33 -568 76 -963 132 -1225 19 -86 23 -99 30 -92 26 26 99
388 209 1047 100 599 95 576 126 572 65 -9 272 -130 307 -180 45 -63 65 -166
122 -615 72 -566 188 -1339 205 -1367 14 -22 25 -7 44 58 60 201 127 747 140
1132 7 209 9 229 31 275 30 63 171 208 197 203 20 -4 103 -162 199 -383 l60
-140 -42 -295 c-62 -429 -95 -599 -196 -995 -108 -429 -199 -655 -261 -655
-48 0 -230 102 -300 169 -75 70 -108 170 -171 517 -62 335 -142 913 -172 1232
-4 39 -10 72 -14 72 -4 0 -10 -30 -14 -67 -36 -355 -166 -1021 -235 -1203 -27
-70 -61 -119 -88 -126 -50 -13 -239 81 -320 159 -51 49 -88 139 -138 334 -118
458 -281 1484 -331 2081 -10 119 5 150 118 257 50 47 97 85 104 85 8 0 41 -53
73 -118z m4492 -62 c109 -36 136 -53 154 -97 46 -109 21 -380 -57 -623 -33
-104 -158 -354 -251 -500 -47 -74 -83 -138 -81 -142 2 -3 62 -37 132 -74 202
-109 290 -210 342 -396 24 -85 43 -286 38 -406 l-3 -84 -337 -195 c-186 -107
-341 -192 -346 -189 -5 3 -13 47 -16 98 -16 197 -54 312 -121 364 -17 12 -64
39 -105 58 -176 84 -234 59 -392 -169 -162 -232 -231 -428 -273 -775 -9 -74
-22 -140 -28 -147 -9 -9 -375 -209 -626 -343 l-24 -12 6 168 c17 412 113 675
417 1143 62 96 113 182 114 190 1 10 -33 25 -109 49 -107 33 -111 35 -180 105
-125 125 -185 286 -185 492 0 136 13 184 81 296 62 102 222 334 256 370 22 24
28 26 63 18 56 -13 167 -56 207 -80 44 -28 61 -63 78 -163 15 -96 40 -150 97
-212 73 -80 226 -147 294 -130 52 13 164 157 237 302 60 120 107 290 107 389
0 66 26 148 86 268 61 123 185 335 239 410 43 58 60 59 186 17z"/>
<path d="M6005 5495 c-291 -168 -441 -261 -443 -272 -2 -14 95 -75 439 -273
243 -140 447 -256 453 -257 15 -4 889 502 901 521 5 8 7 17 5 19 -16 15 -895
517 -904 517 -6 -1 -209 -115 -451 -255z"/>
</g>
</svg>
