<svg width="304" height="99" xmlns="http://www.w3.org/2000/svg" xmlns:xlink="http://www.w3.org/1999/xlink" xml:space="preserve" overflow="hidden"><g><path d="M107.467 90.8 102.533 85.7333 107.067 80.8C109.6 78.1333 112.533 76 113.6 76 115.733 76 124 84 124 86.1333 124 87.8667 115.6 96 113.867 96 113.2 96 110.267 93.7333 107.467 90.8Z" transform="matrix(1 0 0 -1 0 98.8333)"/><path d="M228 44 228 16 256.667 16 285.333 16 285.333 44 285.333 72 256.667 72 228 72 228 44ZM272 44 272 29.3333 256.667 29.3333 241.333 29.3333 241.333 44 241.333 58.6667 256.667 58.6667 272 58.6667 272 44Z" transform="matrix(1 0 0 -1 0 98.8333)"/><path d="M16.2667 66.2667C14.6667 64.5333 13.3333 61.4667 13.3333 59.2 13.3333 53.2 19.3333 32.5333 23.6 24.1333L27.3333 16.6667 34.1333 16.2667C39.0667 16 41.6 16.5333 43.2 18 44.2667 19.2 47.2 26.1333 49.4667 33.4667L53.7333 46.8 56.8 34.5333C61.0667 17.7333 62.4 16 70.6667 16 75.6 16 77.8667 16.6667 79.8667 18.8 83.0667 22.2667 91.2 43.4667 93.4667 54.5333L95.2 62.9333 91.6 66.1333C86.9333 70.1333 85.2 70.1333 80.8 66 78.2667 63.7333 77.3333 61.4667 77.3333 58 77.3333 52.8 73.7333 35.2 72 32 70.8 29.8667 68.5333 36.4 64.6667 54 63.3333 59.8667 61.6 65.4667 60.9333 66.4 60.2667 67.2 57.0667 68 54 68 50.9333 68 47.7333 67.2 47.0667 66.4 46.4 65.4667 44.8 60.8 43.7333 56 40.1333 41.3333 37.2 32 36 32 34.5333 32 32.2667 41.6 31.2 52.6667 30.5333 60.1333 29.6 62.8 26.9333 65.7333 22.8 70.1333 20 70.2667 16.2667 66.2667Z" transform="matrix(1 0 0 -1 0 98.8333)"/><path d="M106.933 68.2667C105.733 67.3333 105.333 61.2 105.6 41.8667L106 16.6667 113.2 16.2667C118.133 16 120.8 16.4 121.467 17.6 122.133 18.5333 122.667 30 122.667 42.9333 122.667 64.9333 122.533 66.6667 120.133 68 117.067 69.6 109.333 69.7333 106.933 68.2667Z" transform="matrix(1 0 0 -1 0 98.8333)"/><path d="M136.267 66.2667C131.067 60.8 132.933 51.2 140.4 44.1333L143.867 41.0667 139.867 37.7333C134.533 33.2 132 27.8667 132 21.3333L132 16 139.867 16 147.6 16 148.4 21.6C149.2 27.0667 154 33.3333 157.467 33.3333 160.4 33.3333 165.333 26.5333 166.133 21.4667L167.067 16 174.8 16 182.667 16 182.667 21.0667C182.533 27.6 178.4 36.5333 174.133 39.3333L170.667 41.6 174.667 45.4667C178 48.9333 181.333 56.2667 181.333 60.5333 181.333 62.4 174.4 69.3333 172.667 69.3333 170 69.3333 165.867 63.6 164.133 57.7333 162.267 51.0667 158.4 48.2667 154.933 50.9333 151.067 53.8667 149.467 56.5333 149.333 59.7333 149.333 63.0667 143.867 69.3333 140.933 69.3333 140 69.3333 137.867 68 136.267 66.2667Z" transform="matrix(1 0 0 -1 0 98.8333)"/><path d="M193.333 44 193.333 37.2 207.067 37.6 220.667 38 220.667 44 220.667 50 207.067 50.4 193.333 50.8 193.333 44Z" transform="matrix(1 0 0 -1 0 98.8333)"/></g></svg>